<svg id="repère" xmlns="http://www.w3.org/2000/svg" viewBox="0 0 64.03 64.25"><defs><style>.cls-1{fill:#fff;}.cls-2{fill:#fbbd08;}.cls-3{fill:#a5673f;}</style></defs><title>bomb-x1</title><g id="bomb-x1"><path class="cls-1" d="M123.05,54.08l-6.49,6.49,3.31,3.32a3,3,0,0,1,0,4.23l-2.18,2.18a26,26,0,1,1-13-13l2.17-2.17a3,3,0,0,1,4.24,0l3.31,3.31,6.5-6.5ZM81.81,76.25a7.54,7.54,0,0,1,7.59-7.49,1.88,1.88,0,1,0,0-3.75A11.33,11.33,0,0,0,78,76.25a1.9,1.9,0,0,0,3.8,0Z" transform="translate(-68.01 -42.73)"/><path class="cls-2" d="M130.55,50.23h-3a1.5,1.5,0,0,0,0,3h3a1.5,1.5,0,0,0,0-3Z" transform="translate(-68.01 -42.73)"/><path class="cls-2" d="M123.05,42.73a1.5,1.5,0,0,0-1.5,1.5v3a1.5,1.5,0,1,0,3,0v-3A1.5,1.5,0,0,0,123.05,42.73Z" transform="translate(-68.01 -42.73)"/><path class="cls-2" d="M127.28,49.6l2.13-2.12a1.5,1.5,0,0,0,0-2.13,1.52,1.52,0,0,0-2.13,0l-2.12,2.13a1.5,1.5,0,0,0,2.12,2.12Z" transform="translate(-68.01 -42.73)"/><path class="cls-2" d="M118.81,49.6a1.5,1.5,0,0,0,2.13-2.12l-2.13-2.13a1.5,1.5,0,0,0-2.12,2.13Z" transform="translate(-68.01 -42.73)"/><path class="cls-2" d="M127.28,53.85A1.5,1.5,0,1,0,125.16,56l2.12,2.13A1.51,1.51,0,0,0,129.41,56Z" transform="translate(-68.01 -42.73)"/><polygon class="cls-3" points="48.57 17.84 55.22 11.18 53.03 9 46.38 15.66 48.57 17.84"/></g></svg>