<?xml version="1.0" encoding="utf-8"?>
<!-- Generator: Adobe Illustrator 23.0.0, SVG Export Plug-In . SVG Version: 6.00 Build 0)  -->
<!DOCTYPE svg PUBLIC "-//W3C//DTD SVG 1.1//EN" "http://www.w3.org/Graphics/SVG/1.1/DTD/svg11.dtd" [
	<!ENTITY st0 "fill:#1D2935;">
	<!ENTITY st1 "fill:#42B983;">
]>
<svg version="1.1" id="Calque_1" xmlns="http://www.w3.org/2000/svg" xmlns:xlink="http://www.w3.org/1999/xlink" x="0px" y="0px"
	 viewBox="0 0 256 256" style="enable-background:new 0 0 256 256;" xml:space="preserve">
<g>
	<circle style="&st0;" cx="128" cy="128" r="123"/>
	<path style="&st1;" d="M128,10c31.52,0,61.15,12.27,83.44,34.56C233.73,66.85,246,96.48,246,128s-12.27,61.15-34.56,83.44
		C189.15,233.73,159.52,246,128,246s-61.15-12.27-83.44-34.56C22.27,189.15,10,159.52,10,128s12.27-61.15,34.56-83.44
		C66.85,22.27,96.48,10,128,10 M128,0C57.31,0,0,57.31,0,128s57.31,128,128,128s128-57.31,128-128S198.69,0,128,0L128,0z"/>
</g>
<g>
	<path style="&st1;" d="M100.06,110.59h4.51c2.15,0,3.74-0.54,4.78-1.61c1.04-1.07,1.55-2.5,1.55-4.28c0-1.72-0.51-3.06-1.54-4.01
		c-1.03-0.96-2.44-1.44-4.23-1.44c-1.62,0-2.98,0.44-4.07,1.33c-1.09,0.89-1.64,2.05-1.64,3.47h-8.47c0-2.23,0.6-4.22,1.8-5.99
		c1.2-1.77,2.88-3.15,5.04-4.15c2.16-1,4.54-1.49,7.13-1.49c4.51,0,8.05,1.08,10.61,3.24c2.56,2.16,3.84,5.13,3.84,8.92
		c0,1.95-0.6,3.75-1.79,5.39c-1.19,1.64-2.75,2.9-4.69,3.78c2.4,0.86,4.19,2.15,5.38,3.87c1.18,1.72,1.77,3.75,1.77,6.09
		c0,3.79-1.38,6.83-4.15,9.11c-2.76,2.29-6.42,3.43-10.97,3.43c-4.26,0-7.74-1.12-10.44-3.37c-2.71-2.25-4.06-5.21-4.06-8.91h8.47
		c0,1.6,0.6,2.91,1.8,3.93c1.2,1.02,2.68,1.52,4.44,1.52c2.01,0,3.59-0.53,4.73-1.6c1.14-1.06,1.71-2.48,1.71-4.23
		c0-4.26-2.34-6.39-7.03-6.39h-4.48V110.59z"/>
	<path style="&st1;" d="M153.79,124.16l4.16-20.19h8.17l-8.09,31.7h-7.09l-6.01-19.95l-6.01,19.95h-7.06l-8.09-31.7h8.17l4.13,20.16
		l5.8-20.16h6.12L153.79,124.16z"/>
</g>
<g>
	<path style="&st1;" d="M68.35,160.64v-17.06h5.58c1.85,0,3.24,0.38,4.18,1.15s1.4,1.9,1.4,3.4c0,0.8-0.23,1.5-0.68,2.12
		s-1.07,1.09-1.85,1.42c0.92,0.26,1.65,0.75,2.19,1.47s0.8,1.58,0.8,2.58c0,1.53-0.5,2.73-1.49,3.61s-2.39,1.31-4.21,1.31H68.35z
		 M70.6,150.86H74c0.98,0,1.77-0.25,2.36-0.74c0.59-0.49,0.88-1.16,0.88-2.01c0-0.94-0.27-1.62-0.82-2.05
		c-0.55-0.43-1.38-0.64-2.5-0.64H70.6V150.86z M70.6,152.66v6.14h3.71c1.05,0,1.87-0.27,2.48-0.81s0.91-1.29,0.91-2.24
		c0-2.05-1.12-3.08-3.35-3.08H70.6z"/>
	<path style="&st1;" d="M88.21,160.88c-1.72,0-3.12-0.56-4.2-1.69s-1.62-2.64-1.62-4.53v-0.4c0-1.26,0.24-2.38,0.72-3.37
		s1.15-1.76,2.02-2.32s1.8-0.84,2.81-0.84c1.65,0,2.93,0.54,3.84,1.63s1.37,2.64,1.37,4.66v0.9h-8.59c0.03,1.25,0.4,2.26,1.1,3.03
		s1.59,1.15,2.67,1.15c0.77,0,1.41-0.16,1.95-0.47s1-0.73,1.39-1.24l1.32,1.03C91.93,160.06,90.34,160.88,88.21,160.88z
		 M87.94,149.51c-0.88,0-1.61,0.32-2.2,0.96s-0.96,1.53-1.1,2.68h6.35v-0.16c-0.06-1.1-0.36-1.96-0.89-2.56
		S88.85,149.51,87.94,149.51z"/>
	<path style="&st1;" d="M98.61,144.89v3.07h2.37v1.68h-2.37v7.87c0,0.51,0.11,0.89,0.32,1.14c0.21,0.25,0.57,0.38,1.08,0.38
		c0.25,0,0.59-0.05,1.03-0.14v1.75c-0.57,0.16-1.13,0.23-1.66,0.23c-0.97,0-1.7-0.29-2.19-0.88s-0.74-1.42-0.74-2.5v-7.86h-2.31
		v-1.68h2.31v-3.07H98.61z"/>
	<path style="&st1;" d="M106.75,143.58l5.58,13.92l5.58-13.92h2.92v17.06h-2.25V154l0.21-7.17l-5.6,13.82h-1.72l-5.59-13.78
		l0.22,7.14v6.64h-2.25v-17.06H106.75z"/>
	<path style="&st1;" d="M132.29,160.64c-0.13-0.25-0.23-0.7-0.3-1.34c-1.01,1.05-2.21,1.57-3.61,1.57c-1.25,0-2.28-0.35-3.08-1.06
		s-1.2-1.6-1.2-2.69c0-1.32,0.5-2.35,1.51-3.08s2.42-1.1,4.24-1.1h2.11v-1c0-0.76-0.23-1.36-0.68-1.81s-1.12-0.67-2-0.67
		c-0.77,0-1.42,0.2-1.95,0.59s-0.79,0.86-0.79,1.42h-2.18c0-0.63,0.22-1.24,0.67-1.83s1.06-1.06,1.83-1.4s1.62-0.52,2.54-0.52
		c1.46,0,2.61,0.37,3.43,1.1s1.26,1.74,1.29,3.02v5.84c0,1.16,0.15,2.09,0.45,2.78v0.19H132.29z M128.69,158.99
		c0.68,0,1.32-0.18,1.93-0.53s1.05-0.81,1.32-1.37v-2.6h-1.7c-2.66,0-3.98,0.78-3.98,2.33c0,0.68,0.23,1.21,0.68,1.59
		S127.98,158.99,128.69,158.99z"/>
	<path style="&st1;" d="M139.56,147.96l0.07,1.59c0.97-1.22,2.23-1.83,3.8-1.83c2.68,0,4.03,1.51,4.05,4.54v8.38h-2.17v-8.39
		c-0.01-0.91-0.22-1.59-0.63-2.03s-1.05-0.66-1.92-0.66c-0.7,0-1.32,0.19-1.85,0.56s-0.95,0.87-1.24,1.48v9.04h-2.17v-12.68H139.56z
		"/>
	<path style="&st1;" d="M158.58,160.64c-0.13-0.25-0.23-0.7-0.3-1.34c-1.01,1.05-2.21,1.57-3.61,1.57c-1.25,0-2.28-0.35-3.08-1.06
		s-1.2-1.6-1.2-2.69c0-1.32,0.5-2.35,1.51-3.08s2.42-1.1,4.24-1.1h2.11v-1c0-0.76-0.23-1.36-0.68-1.81s-1.12-0.67-2-0.67
		c-0.77,0-1.42,0.2-1.95,0.59s-0.79,0.86-0.79,1.42h-2.18c0-0.63,0.22-1.24,0.67-1.83s1.06-1.06,1.83-1.4s1.62-0.52,2.54-0.52
		c1.46,0,2.61,0.37,3.43,1.1s1.26,1.74,1.29,3.02v5.84c0,1.16,0.15,2.09,0.45,2.78v0.19H158.58z M154.98,158.99
		c0.68,0,1.32-0.18,1.93-0.53s1.05-0.81,1.32-1.37v-2.6h-1.7c-2.66,0-3.98,0.78-3.98,2.33c0,0.68,0.23,1.21,0.68,1.59
		S154.27,158.99,154.98,158.99z"/>
	<path style="&st1;" d="M163.29,154.2c0-1.98,0.46-3.55,1.37-4.72s2.13-1.75,3.63-1.75c1.55,0,2.75,0.55,3.62,1.64l0.11-1.41H174
		v12.38c0,1.64-0.49,2.93-1.46,3.88s-2.28,1.42-3.92,1.42c-0.91,0-1.81-0.2-2.68-0.59s-1.54-0.93-2-1.61l1.13-1.3
		c0.93,1.15,2.07,1.72,3.41,1.72c1.05,0,1.88-0.3,2.47-0.89s0.88-1.43,0.88-2.51v-1.09c-0.87,1-2.05,1.5-3.55,1.5
		c-1.48,0-2.69-0.6-3.6-1.79S163.29,156.26,163.29,154.2z M165.47,154.44c0,1.43,0.29,2.55,0.88,3.37s1.41,1.22,2.46,1.22
		c1.37,0,2.37-0.62,3.01-1.86v-5.79c-0.66-1.21-1.66-1.82-2.99-1.82c-1.05,0-1.88,0.41-2.47,1.23S165.47,152.83,165.47,154.44z"/>
	<path style="&st1;" d="M182.54,160.88c-1.72,0-3.12-0.56-4.2-1.69s-1.62-2.64-1.62-4.53v-0.4c0-1.26,0.24-2.38,0.72-3.37
		s1.15-1.76,2.02-2.32s1.8-0.84,2.81-0.84c1.65,0,2.93,0.54,3.84,1.63s1.37,2.64,1.37,4.66v0.9h-8.59c0.03,1.25,0.4,2.26,1.1,3.03
		s1.59,1.15,2.67,1.15c0.77,0,1.41-0.16,1.95-0.47s1-0.73,1.39-1.24l1.32,1.03C186.25,160.06,184.66,160.88,182.54,160.88z
		 M182.27,149.51c-0.88,0-1.61,0.32-2.2,0.96s-0.96,1.53-1.1,2.68h6.35v-0.16c-0.06-1.1-0.36-1.96-0.89-2.56
		S183.17,149.51,182.27,149.51z"/>
	<path style="&st1;" d="M196.12,149.91c-0.33-0.05-0.68-0.08-1.07-0.08c-1.42,0-2.39,0.61-2.89,1.82v9h-2.17v-12.68h2.11l0.04,1.46
		c0.71-1.13,1.72-1.7,3.02-1.7c0.42,0,0.74,0.05,0.96,0.16V149.91z"/>
</g>
<g>
	<path style="&st1;" d="M185.67,27l58.17,100.76l-58.17,100.76H69.33L11.15,127.76L69.33,27H185.67 M186.25,26H68.75L10,127.76
		l58.75,101.76h117.5L245,127.76L186.25,26L186.25,26z"/>
</g>
<g>
	<path style="&st1;" d="M128.1,26.79l85.88,49.58l-0.59,100.22l-86.5,50.62l-85.88-49.58l0.59-100.22L128.1,26.79 M128.1,25.63
		l-87.49,51.2l-0.6,101.37l86.89,50.17l87.49-51.2l0.6-101.37L128.1,25.63L128.1,25.63z"/>
</g>
<g>
</g>
<g>
</g>
<g>
</g>
<g>
</g>
<g>
</g>
<g>
</g>
<g>
</g>
<g>
</g>
<g>
</g>
<g>
</g>
<g>
</g>
<g>
</g>
<g>
</g>
<g>
</g>
<g>
</g>
</svg>
