<svg id="repère" xmlns="http://www.w3.org/2000/svg" viewBox="0 0 72.2 65.1"><defs><style>.cls-1{fill:#fff;}.cls-2{fill:#fbbd08;}.cls-3{fill:#f90b93;}.cls-4{fill:#68f90b;}.cls-5{fill:#0b8ef9;}.cls-6{fill:#f90b16;}</style></defs><title>lootbox</title><g id="lootbox"><path class="cls-1" d="M111.43,81.91a5.47,5.47,0,0,1-4.67-2.64l-7.26-12-7.24,12a5.47,5.47,0,0,1-4.68,2.65,5.38,5.38,0,0,1-1.5-.21L70.62,77.28V97.36a3.6,3.6,0,0,0,2.73,3.5L97.74,107a7.15,7.15,0,0,0,3.5,0l24.41-6.1a3.62,3.62,0,0,0,2.73-3.5V77.28L112.93,81.7A5.49,5.49,0,0,1,111.43,81.91Zm24-12.66L129.6,57.66a1.85,1.85,0,0,0-1.88-1L99.5,60.25l10.35,17.16a1.84,1.84,0,0,0,2.08.82l22.33-6.37a1.86,1.86,0,0,0,1.15-2.61Zm-66-11.59L63.6,69.25a1.84,1.84,0,0,0,1.13,2.6l22.33,6.37a1.85,1.85,0,0,0,2.09-.82L99.5,60.25l-28.22-3.6A1.83,1.83,0,0,0,69.41,57.66Z" transform="translate(-63.4 -42.08)"/><path class="cls-2" d="M84.23,45.71l-.67,1.74a.93.93,0,1,0,1.73.67L86,46.39a.94.94,0,0,0-.54-1.21A.92.92,0,0,0,84.23,45.71Z" transform="translate(-63.4 -42.08)"/><path class="cls-3" d="M78.2,48.38a.93.93,0,0,0,.53,1.21l1.74.67a.93.93,0,1,0,.67-1.74l-1.74-.67A.92.92,0,0,0,78.2,48.38Z" transform="translate(-63.4 -42.08)"/><path class="cls-4" d="M83.13,47.47l-.75-1.71a.93.93,0,1,0-1.71.75l.76,1.71a.93.93,0,1,0,1.7-.75Z" transform="translate(-63.4 -42.08)"/><path class="cls-5" d="M81.24,52.38a.94.94,0,0,0-.76-1.71l-1.71.76a.93.93,0,0,0-.47,1.23.94.94,0,0,0,1.23.48Z" transform="translate(-63.4 -42.08)"/><path class="cls-6" d="M85.6,48.42a.93.93,0,1,0,.75,1.7l1.71-.75a.93.93,0,0,0-.75-1.71Z" transform="translate(-63.4 -42.08)"/><polygon class="cls-1" points="23.7 14.06 21.32 8.7 19.57 9.48 21.95 14.84 23.7 14.06"/><path class="cls-4" d="M101.94,44l-1.56,1.54a1.09,1.09,0,1,0,1.53,1.56l1.57-1.53A1.1,1.1,0,0,0,101.94,44Z" transform="translate(-63.4 -42.08)"/><path class="cls-2" d="M94.19,44a1.09,1.09,0,0,0,0,1.55l1.53,1.56a1.1,1.1,0,1,0,1.57-1.53L95.74,44A1.1,1.1,0,0,0,94.19,44Z" transform="translate(-63.4 -42.08)"/><path class="cls-5" d="M99.92,45.38l0-2.2a1.1,1.1,0,0,0-2.2,0l0,2.19a1.11,1.11,0,0,0,1.09,1.11A1.1,1.1,0,0,0,99.92,45.38Z" transform="translate(-63.4 -42.08)"/><path class="cls-3" d="M95.5,49.72a1.1,1.1,0,1,0,0-2.19l-2.19,0a1.1,1.1,0,1,0,0,2.19Z" transform="translate(-63.4 -42.08)"/><path class="cls-6" d="M102.1,47.6a1.1,1.1,0,1,0,0,2.19l2.19,0a1.1,1.1,0,1,0,0-2.2Z" transform="translate(-63.4 -42.08)"/><polygon class="cls-1" points="36.56 14.51 36.62 7.62 34.36 7.61 34.31 14.5 36.56 14.51"/><path class="cls-3" d="M118.09,48.3l-1.79.49a.93.93,0,0,0,.49,1.79l1.79-.49a.93.93,0,1,0-.49-1.79Z" transform="translate(-63.4 -42.08)"/><path class="cls-5" d="M112.4,45.05a.92.92,0,0,0-.65,1.14l.49,1.79a.93.93,0,1,0,1.79-.49l-.49-1.79A.94.94,0,0,0,112.4,45.05Z" transform="translate(-63.4 -42.08)"/><path class="cls-2" d="M116,48.46l.92-1.61a.93.93,0,1,0-1.61-.92l-.92,1.61a.93.93,0,1,0,1.61.92Z" transform="translate(-63.4 -42.08)"/><path class="cls-6" d="M111,49.84a.93.93,0,1,0,.92-1.61l-1.61-.92a.93.93,0,0,0-1.27.35.92.92,0,0,0,.35,1.26Z" transform="translate(-63.4 -42.08)"/><path class="cls-4" d="M116.74,51a.93.93,0,0,0-.92,1.62l1.61.92a.93.93,0,1,0,.92-1.62Z" transform="translate(-63.4 -42.08)"/><polygon class="cls-1" points="48.05 14.68 50.94 9.61 49.27 8.67 46.39 13.73 48.05 14.68"/></g></svg>