<svg id="repère" xmlns="http://www.w3.org/2000/svg" viewBox="0 0 78.93 52.62"><defs><style>.cls-1{fill:#fff;}.cls-2{font-size:12.89px;font-family:Roboto-Bold, Roboto;font-weight:700;}.cls-2,.cls-3{fill:#fbbd08;}</style></defs><title>multiplier-x2</title><g id="multiplier-x10"><path class="cls-1" d="M78.08,63.11h43.84V89.42H78.08Zm54.81,13.16a6.58,6.58,0,0,0,6.57,6.58V96a6.58,6.58,0,0,1-6.57,6.58H67.11A6.58,6.58,0,0,1,60.54,96V82.85a6.58,6.58,0,0,0,0-13.16V56.54A6.57,6.57,0,0,1,67.11,50h65.78a6.57,6.57,0,0,1,6.57,6.58V69.69A6.58,6.58,0,0,0,132.89,76.27ZM126.31,62A3.29,3.29,0,0,0,123,58.73H77A3.29,3.29,0,0,0,73.69,62v28.5A3.29,3.29,0,0,0,77,93.81h46a3.29,3.29,0,0,0,3.29-3.29Z" transform="translate(-60.54 -49.96)"/><text class="cls-2" transform="translate(36.6 30.25)">x5</text><path class="cls-3" d="M88,69.26a6.29,6.29,0,1,0,6.29,6.29A6.29,6.29,0,0,0,88,69.26Zm3,8.79a3.77,3.77,0,0,1-2.78,1.16,3.66,3.66,0,0,1,0-7.32,3.66,3.66,0,0,1,2.62,1,.3.3,0,0,1,0,.37l-.57.88a.3.3,0,0,1-.46.06,2.51,2.51,0,0,0-1.57-.61,1.82,1.82,0,0,0-1.87,1.93,1.9,1.9,0,0,0,1.88,2,2.51,2.51,0,0,0,1.66-.72.3.3,0,0,1,.47,0l.62.85a.3.3,0,0,1,0,.38Z" transform="translate(-60.54 -49.96)"/></g></svg>