<svg id="repère" xmlns="http://www.w3.org/2000/svg" viewBox="0 0 88.18 61.73"><defs><style>.cls-1{fill:#fff;}</style></defs><title>mystery</title><g id="mystery"><path class="cls-1" d="M114.72,76.32a6.66,6.66,0,0,1-5.7-3.23l-8.86-14.68L91.31,73.09a6.7,6.7,0,0,1-5.72,3.24,6.28,6.28,0,0,1-1.83-.26l-18.87-5.4V95.19a4.38,4.38,0,0,0,3.33,4.27L98,106.92a9.07,9.07,0,0,0,4.27,0l29.81-7.46a4.41,4.41,0,0,0,3.34-4.27V70.67l-18.88,5.39A6.28,6.28,0,0,1,114.72,76.32ZM144,60.86,136.92,46.7a2.26,2.26,0,0,0-2.31-1.23l-34.45,4.39,12.63,21a2.27,2.27,0,0,0,2.55,1L142.61,64a2.27,2.27,0,0,0,1.4-3.18ZM63.4,46.7,56.3,60.86A2.25,2.25,0,0,0,57.69,64L85,71.81a2.27,2.27,0,0,0,2.55-1l12.65-21L65.68,45.47A2.23,2.23,0,0,0,63.4,46.7Z" transform="translate(-56.06 -45.45)"/><path d="M100,75a10.14,10.14,0,0,0-9,4.77,1.25,1.25,0,0,0,.27,1.72l2.26,1.71A1.25,1.25,0,0,0,95.28,83c1.31-1.65,2.29-2.59,4.34-2.59,1.61,0,3.6,1,3.6,2.6,0,1.18-1,1.78-2.56,2.68-1.86,1-4.32,2.33-4.32,5.57v.51A1.26,1.26,0,0,0,97.6,93h3.8a1.26,1.26,0,0,0,1.26-1.26v-.3c0-2.24,6.56-2.34,6.56-8.41C109.22,78.47,104.47,75,100,75ZM99.5,94.56a3.63,3.63,0,1,0,3.63,3.63A3.64,3.64,0,0,0,99.5,94.56Z" transform="translate(-56.06 -45.45)"/></g></svg>